<svg viewBox="0 0 1441 400" xmlns="http://www.w3.org/2000/svg"><g><g><g><g><g><line x1="51.5625" y1="369.1568643492365" x2="46.5625" y2="369.1568643492365" style="visibility: inherit;" fill="rgb(0, 0, 0)" stroke="rgb(204, 204, 204)" stroke-width="1px"></line><line x1="51.5625" y1="359.76206523775966" x2="46.5625" y2="359.76206523775966" style="visibility: inherit;" fill="rgb(0, 0, 0)" stroke="rgb(204, 204, 204)" stroke-width="1px"></line><line x1="51.5625" y1="351.8188757688844" x2="46.5625" y2="351.8188757688844" style="visibility: inherit;" fill="rgb(0, 0, 0)" stroke="rgb(204, 204, 204)" stroke-width="1px"></line><line x1="51.5625" y1="344.93817207787293" x2="46.5625" y2="344.93817207787293" style="visibility: inherit;" fill="rgb(0, 0, 0)" stroke="rgb(204, 204, 204)" stroke-width="1px"></line><line x1="51.5625" y1="338.8689612934226" x2="46.5625" y2="338.8689612934226" style="visibility: inherit;" fill="rgb(0, 0, 0)" stroke="rgb(204, 204, 204)" stroke-width="1px"></line><line x1="51.5625" y1="333.4398672450127" x2="46.5625" y2="333.4398672450127" style="visibility: inherit;" fill="rgb(0, 0, 0)" stroke="rgb(204, 204, 204)" stroke-width="1px"></line><line x1="51.5625" y1="297.72287014078887" x2="46.5625" y2="297.72287014078887" style="visibility: inherit;" fill="rgb(0, 0, 0)" stroke="rgb(204, 204, 204)" stroke-width="1px"></line><line x1="51.5625" y1="276.8297661964518" x2="46.5625" y2="276.8297661964518" style="visibility: inherit;" fill="rgb(0, 0, 0)" stroke="rgb(204, 204, 204)" stroke-width="1px"></line><line x1="51.5625" y1="262.00587303656505" x2="46.5625" y2="262.00587303656505" style="visibility: inherit;" fill="rgb(0, 0, 0)" stroke="rgb(204, 204, 204)" stroke-width="1px"></line><line x1="51.5625" y1="250.50756820370486" x2="46.5625" y2="250.50756820370486" style="visibility: inherit;" fill="rgb(0, 0, 0)" stroke="rgb(204, 204, 204)" stroke-width="1px"></line><line x1="51.5625" y1="241.11276909222804" x2="46.5625" y2="241.11276909222804" style="visibility: inherit;" fill="rgb(0, 0, 0)" stroke="rgb(204, 204, 204)" stroke-width="1px"></line><line x1="51.5625" y1="233.16957962335277" x2="46.5625" y2="233.16957962335277" style="visibility: inherit;" fill="rgb(0, 0, 0)" stroke="rgb(204, 204, 204)" stroke-width="1px"></line><line x1="51.5625" y1="226.28887593234128" x2="46.5625" y2="226.28887593234128" style="visibility: inherit;" fill="rgb(0, 0, 0)" stroke="rgb(204, 204, 204)" stroke-width="1px"></line><line x1="51.5625" y1="220.21966514789094" x2="46.5625" y2="220.21966514789094" style="visibility: inherit;" fill="rgb(0, 0, 0)" stroke="rgb(204, 204, 204)" stroke-width="1px"></line><line x1="51.5625" y1="214.79057109948107" x2="46.5625" y2="214.79057109948107" style="visibility: inherit;" fill="rgb(0, 0, 0)" stroke="rgb(204, 204, 204)" stroke-width="1px"></line><line x1="51.5625" y1="179.07357399525725" x2="46.5625" y2="179.07357399525725" style="visibility: inherit;" fill="rgb(0, 0, 0)" stroke="rgb(204, 204, 204)" stroke-width="1px"></line><line x1="51.5625" y1="158.18047005092018" x2="46.5625" y2="158.18047005092018" style="visibility: inherit;" fill="rgb(0, 0, 0)" stroke="rgb(204, 204, 204)" stroke-width="1px"></line><line x1="51.5625" y1="143.35657689103343" x2="46.5625" y2="143.35657689103343" style="visibility: inherit;" fill="rgb(0, 0, 0)" stroke="rgb(204, 204, 204)" stroke-width="1px"></line><line x1="51.5625" y1="131.8582720581732" x2="46.5625" y2="131.8582720581732" style="visibility: inherit;" fill="rgb(0, 0, 0)" stroke="rgb(204, 204, 204)" stroke-width="1px"></line><line x1="51.5625" y1="122.4634729466964" x2="46.5625" y2="122.4634729466964" style="visibility: inherit;" fill="rgb(0, 0, 0)" stroke="rgb(204, 204, 204)" stroke-width="1px"></line><line x1="51.5625" y1="114.52028347782117" x2="46.5625" y2="114.52028347782117" style="visibility: inherit;" fill="rgb(0, 0, 0)" stroke="rgb(204, 204, 204)" stroke-width="1px"></line><line x1="51.5625" y1="107.6395797868096" x2="46.5625" y2="107.6395797868096" style="visibility: inherit;" fill="rgb(0, 0, 0)" stroke="rgb(204, 204, 204)" stroke-width="1px"></line><line x1="51.5625" y1="101.57036900235931" x2="46.5625" y2="101.57036900235931" style="visibility: inherit;" fill="rgb(0, 0, 0)" stroke="rgb(204, 204, 204)" stroke-width="1px"></line><line x1="51.5625" y1="96.1412749539494" x2="46.5625" y2="96.1412749539494" style="visibility: inherit;" fill="rgb(0, 0, 0)" stroke="rgb(204, 204, 204)" stroke-width="1px"></line><line x1="51.5625" y1="60.42427784972562" x2="46.5625" y2="60.42427784972562" style="visibility: inherit;" fill="rgb(0, 0, 0)" stroke="rgb(204, 204, 204)" stroke-width="1px"></line><line x1="51.5625" y1="39.53117390538854" x2="46.5625" y2="39.53117390538854" style="visibility: inherit;" fill="rgb(0, 0, 0)" stroke="rgb(204, 204, 204)" stroke-width="1px"></line><line x1="51.5625" y1="24.707280745501798" x2="46.5625" y2="24.707280745501798" style="visibility: inherit;" fill="rgb(0, 0, 0)" stroke="rgb(204, 204, 204)" stroke-width="1px"></line><line x1="51.5625" y1="13.208975912641586" x2="46.5625" y2="13.208975912641586" style="visibility: inherit;" fill="rgb(0, 0, 0)" stroke="rgb(204, 204, 204)" stroke-width="1px"></line><line x1="51.5625" y1="3.8141768011647166" x2="46.5625" y2="3.8141768011647166" style="visibility: inherit;" fill="rgb(0, 0, 0)" stroke="rgb(204, 204, 204)" stroke-width="1px"></line></g><g transform="translate(41.5625, 0)"><text x="0" y="369.1568643492365" dx="0em" dy="0.3em" style="text-anchor: end; visibility: inherit; font-family: Roboto, sans-serif; font-size: 12px; font-weight: 200;" fill="rgb(50, 49, 63)" stroke="none" stroke-width="1px">5e-3</text><text x="0" y="359.76206523775966" dx="0em" dy="0.3em" style="text-anchor: end; visibility: hidden; font-family: Roboto, sans-serif; font-size: 12px; font-weight: 200;" fill="rgb(50, 49, 63)" stroke="none" stroke-width="1px">6e-3</text><text x="0" y="351.8188757688844" dx="0em" dy="0.3em" style="text-anchor: end; visibility: hidden; font-family: Roboto, sans-serif; font-size: 12px; font-weight: 200;" fill="rgb(50, 49, 63)" stroke="none" stroke-width="1px">7e-3</text><text x="0" y="344.93817207787293" dx="0em" dy="0.3em" style="text-anchor: end; visibility: inherit; font-family: Roboto, sans-serif; font-size: 12px; font-weight: 200;" fill="rgb(50, 49, 63)" stroke="none" stroke-width="1px">8e-3</text><text x="0" y="338.8689612934226" dx="0em" dy="0.3em" style="text-anchor: end; visibility: hidden; font-family: Roboto, sans-serif; font-size: 12px; font-weight: 200;" fill="rgb(50, 49, 63)" stroke="none" stroke-width="1px">9e-3</text><text x="0" y="333.4398672450127" dx="0em" dy="0.3em" style="text-anchor: end; visibility: hidden; font-family: Roboto, sans-serif; font-size: 12px; font-weight: 200;" fill="rgb(50, 49, 63)" stroke="none" stroke-width="1px">0.01</text><text x="0" y="297.72287014078887" dx="0em" dy="0.3em" style="text-anchor: end; visibility: inherit; font-family: Roboto, sans-serif; font-size: 12px; font-weight: 200;" fill="rgb(50, 49, 63)" stroke="none" stroke-width="1px">0.02</text><text x="0" y="276.8297661964518" dx="0em" dy="0.3em" style="text-anchor: end; visibility: hidden; font-family: Roboto, sans-serif; font-size: 12px; font-weight: 200;" fill="rgb(50, 49, 63)" stroke="none" stroke-width="1px">0.03</text><text x="0" y="262.00587303656505" dx="0em" dy="0.3em" style="text-anchor: end; visibility: hidden; font-family: Roboto, sans-serif; font-size: 12px; font-weight: 200;" fill="rgb(50, 49, 63)" stroke="none" stroke-width="1px">0.04</text><text x="0" y="250.50756820370486" dx="0em" dy="0.3em" style="text-anchor: end; visibility: inherit; font-family: Roboto, sans-serif; font-size: 12px; font-weight: 200;" fill="rgb(50, 49, 63)" stroke="none" stroke-width="1px">0.05</text><text x="0" y="241.11276909222804" dx="0em" dy="0.3em" style="text-anchor: end; visibility: hidden; font-family: Roboto, sans-serif; font-size: 12px; font-weight: 200;" fill="rgb(50, 49, 63)" stroke="none" stroke-width="1px">0.06</text><text x="0" y="233.16957962335277" dx="0em" dy="0.3em" style="text-anchor: end; visibility: hidden; font-family: Roboto, sans-serif; font-size: 12px; font-weight: 200;" fill="rgb(50, 49, 63)" stroke="none" stroke-width="1px">0.07</text><text x="0" y="226.28887593234128" dx="0em" dy="0.3em" style="text-anchor: end; visibility: inherit; font-family: Roboto, sans-serif; font-size: 12px; font-weight: 200;" fill="rgb(50, 49, 63)" stroke="none" stroke-width="1px">0.08</text><text x="0" y="220.21966514789094" dx="0em" dy="0.3em" style="text-anchor: end; visibility: hidden; font-family: Roboto, sans-serif; font-size: 12px; font-weight: 200;" fill="rgb(50, 49, 63)" stroke="none" stroke-width="1px">0.09</text><text x="0" y="214.79057109948107" dx="0em" dy="0.3em" style="text-anchor: end; visibility: hidden; font-family: Roboto, sans-serif; font-size: 12px; font-weight: 200;" fill="rgb(50, 49, 63)" stroke="none" stroke-width="1px">0.1</text><text x="0" y="179.07357399525725" dx="0em" dy="0.3em" style="text-anchor: end; visibility: inherit; font-family: Roboto, sans-serif; font-size: 12px; font-weight: 200;" fill="rgb(50, 49, 63)" stroke="none" stroke-width="1px">0.2</text><text x="0" y="158.18047005092018" dx="0em" dy="0.3em" style="text-anchor: end; visibility: hidden; font-family: Roboto, sans-serif; font-size: 12px; font-weight: 200;" fill="rgb(50, 49, 63)" stroke="none" stroke-width="1px">0.3</text><text x="0" y="143.35657689103343" dx="0em" dy="0.3em" style="text-anchor: end; visibility: hidden; font-family: Roboto, sans-serif; font-size: 12px; font-weight: 200;" fill="rgb(50, 49, 63)" stroke="none" stroke-width="1px">0.4</text><text x="0" y="131.8582720581732" dx="0em" dy="0.3em" style="text-anchor: end; visibility: inherit; font-family: Roboto, sans-serif; font-size: 12px; font-weight: 200;" fill="rgb(50, 49, 63)" stroke="none" stroke-width="1px">0.5</text><text x="0" y="122.4634729466964" dx="0em" dy="0.3em" style="text-anchor: end; visibility: hidden; font-family: Roboto, sans-serif; font-size: 12px; font-weight: 200;" fill="rgb(50, 49, 63)" stroke="none" stroke-width="1px">0.6</text><text x="0" y="114.52028347782117" dx="0em" dy="0.3em" style="text-anchor: end; visibility: hidden; font-family: Roboto, sans-serif; font-size: 12px; font-weight: 200;" fill="rgb(50, 49, 63)" stroke="none" stroke-width="1px">0.7</text><text x="0" y="107.6395797868096" dx="0em" dy="0.3em" style="text-anchor: end; visibility: inherit; font-family: Roboto, sans-serif; font-size: 12px; font-weight: 200;" fill="rgb(50, 49, 63)" stroke="none" stroke-width="1px">0.8</text><text x="0" y="101.57036900235931" dx="0em" dy="0.3em" style="text-anchor: end; visibility: hidden; font-family: Roboto, sans-serif; font-size: 12px; font-weight: 200;" fill="rgb(50, 49, 63)" stroke="none" stroke-width="1px">0.9</text><text x="0" y="96.1412749539494" dx="0em" dy="0.3em" style="text-anchor: end; visibility: hidden; font-family: Roboto, sans-serif; font-size: 12px; font-weight: 200;" fill="rgb(50, 49, 63)" stroke="none" stroke-width="1px">1</text><text x="0" y="60.42427784972562" dx="0em" dy="0.3em" style="text-anchor: end; visibility: inherit; font-family: Roboto, sans-serif; font-size: 12px; font-weight: 200;" fill="rgb(50, 49, 63)" stroke="none" stroke-width="1px">2</text><text x="0" y="39.53117390538854" dx="0em" dy="0.3em" style="text-anchor: end; visibility: hidden; font-family: Roboto, sans-serif; font-size: 12px; font-weight: 200;" fill="rgb(50, 49, 63)" stroke="none" stroke-width="1px">3</text><text x="0" y="24.707280745501798" dx="0em" dy="0.3em" style="text-anchor: end; visibility: hidden; font-family: Roboto, sans-serif; font-size: 12px; font-weight: 200;" fill="rgb(50, 49, 63)" stroke="none" stroke-width="1px">4</text><text x="0" y="13.208975912641586" dx="0em" dy="0.3em" style="text-anchor: end; visibility: inherit; font-family: Roboto, sans-serif; font-size: 12px; font-weight: 200;" fill="rgb(50, 49, 63)" stroke="none" stroke-width="1px">5</text><text x="0" y="3.8141768011647166" dx="0em" dy="0.3em" style="text-anchor: end; visibility: hidden; font-family: Roboto, sans-serif; font-size: 12px; font-weight: 200;" fill="rgb(50, 49, 63)" stroke="none" stroke-width="1px">6</text></g><line x1="51.5625" y1="0" x2="51.5625" y2="378" fill="rgb(0, 0, 0)" stroke="rgb(204, 204, 204)" stroke-width="1px"></line></g></g><g transform="translate(51, 0)" clip-path="url(#clip_0)"><clipPath id="clip_0"><rect width="1389" height="378"></rect></clipPath><g><g><g><line x1="0" y1="0" x2="0" y2="378" fill="rgb(0, 0, 0)" stroke="rgb(60, 60, 60)" stroke-width="1px" opacity="0.25"></line><line x1="115.78645833333333" y1="0" x2="115.78645833333333" y2="378" fill="rgb(0, 0, 0)" stroke="rgb(60, 60, 60)" stroke-width="1px" opacity="0.25"></line><line x1="231.57291666666666" y1="0" x2="231.57291666666666" y2="378" fill="rgb(0, 0, 0)" stroke="rgb(60, 60, 60)" stroke-width="1px" opacity="0.25"></line><line x1="347.359375" y1="0" x2="347.359375" y2="378" fill="rgb(0, 0, 0)" stroke="rgb(60, 60, 60)" stroke-width="1px" opacity="0.25"></line><line x1="463.1458333333333" y1="0" x2="463.1458333333333" y2="378" fill="rgb(0, 0, 0)" stroke="rgb(60, 60, 60)" stroke-width="1px" opacity="0.25"></line><line x1="578.9322916666667" y1="0" x2="578.9322916666667" y2="378" fill="rgb(0, 0, 0)" stroke="rgb(60, 60, 60)" stroke-width="1px" opacity="0.25"></line><line x1="694.71875" y1="0" x2="694.71875" y2="378" fill="rgb(0, 0, 0)" stroke="rgb(60, 60, 60)" stroke-width="1px" opacity="0.25"></line><line x1="810.5052083333334" y1="0" x2="810.5052083333334" y2="378" fill="rgb(0, 0, 0)" stroke="rgb(60, 60, 60)" stroke-width="1px" opacity="0.25"></line><line x1="926.2916666666666" y1="0" x2="926.2916666666666" y2="378" fill="rgb(0, 0, 0)" stroke="rgb(60, 60, 60)" stroke-width="1px" opacity="0.25"></line><line x1="1042.078125" y1="0" x2="1042.078125" y2="378" fill="rgb(0, 0, 0)" stroke="rgb(60, 60, 60)" stroke-width="1px" opacity="0.25"></line><line x1="1157.8645833333335" y1="0" x2="1157.8645833333335" y2="378" fill="rgb(0, 0, 0)" stroke="rgb(60, 60, 60)" stroke-width="1px" opacity="0.25"></line><line x1="1273.6510416666665" y1="0" x2="1273.6510416666665" y2="378" fill="rgb(0, 0, 0)" stroke="rgb(60, 60, 60)" stroke-width="1px" opacity="0.25"></line><line x1="1389.4375" y1="0" x2="1389.4375" y2="378" fill="rgb(0, 0, 0)" stroke="rgb(60, 60, 60)" stroke-width="1px" opacity="0.25"></line></g><g><line x1="0" y1="369.1568643492365" x2="1389.4375" y2="369.1568643492365" fill="rgb(0, 0, 0)" stroke="rgb(60, 60, 60)" stroke-width="1px" opacity="0.25"></line><line x1="0" y1="359.76206523775966" x2="1389.4375" y2="359.76206523775966" fill="rgb(0, 0, 0)" stroke="rgb(60, 60, 60)" stroke-width="1px" opacity="0.25"></line><line x1="0" y1="351.8188757688844" x2="1389.4375" y2="351.8188757688844" fill="rgb(0, 0, 0)" stroke="rgb(60, 60, 60)" stroke-width="1px" opacity="0.25"></line><line x1="0" y1="344.93817207787293" x2="1389.4375" y2="344.93817207787293" fill="rgb(0, 0, 0)" stroke="rgb(60, 60, 60)" stroke-width="1px" opacity="0.25"></line><line x1="0" y1="338.8689612934226" x2="1389.4375" y2="338.8689612934226" fill="rgb(0, 0, 0)" stroke="rgb(60, 60, 60)" stroke-width="1px" opacity="0.25"></line><line x1="0" y1="333.4398672450127" x2="1389.4375" y2="333.4398672450127" fill="rgb(0, 0, 0)" stroke="rgb(60, 60, 60)" stroke-width="1px" opacity="0.25"></line><line x1="0" y1="297.72287014078887" x2="1389.4375" y2="297.72287014078887" fill="rgb(0, 0, 0)" stroke="rgb(60, 60, 60)" stroke-width="1px" opacity="0.25"></line><line x1="0" y1="276.8297661964518" x2="1389.4375" y2="276.8297661964518" fill="rgb(0, 0, 0)" stroke="rgb(60, 60, 60)" stroke-width="1px" opacity="0.25"></line><line x1="0" y1="262.00587303656505" x2="1389.4375" y2="262.00587303656505" fill="rgb(0, 0, 0)" stroke="rgb(60, 60, 60)" stroke-width="1px" opacity="0.25"></line><line x1="0" y1="250.50756820370486" x2="1389.4375" y2="250.50756820370486" fill="rgb(0, 0, 0)" stroke="rgb(60, 60, 60)" stroke-width="1px" opacity="0.25"></line><line x1="0" y1="241.11276909222804" x2="1389.4375" y2="241.11276909222804" fill="rgb(0, 0, 0)" stroke="rgb(60, 60, 60)" stroke-width="1px" opacity="0.25"></line><line x1="0" y1="233.16957962335277" x2="1389.4375" y2="233.16957962335277" fill="rgb(0, 0, 0)" stroke="rgb(60, 60, 60)" stroke-width="1px" opacity="0.25"></line><line x1="0" y1="226.28887593234128" x2="1389.4375" y2="226.28887593234128" fill="rgb(0, 0, 0)" stroke="rgb(60, 60, 60)" stroke-width="1px" opacity="0.25"></line><line x1="0" y1="220.21966514789094" x2="1389.4375" y2="220.21966514789094" fill="rgb(0, 0, 0)" stroke="rgb(60, 60, 60)" stroke-width="1px" opacity="0.25"></line><line x1="0" y1="214.79057109948107" x2="1389.4375" y2="214.79057109948107" fill="rgb(0, 0, 0)" stroke="rgb(60, 60, 60)" stroke-width="1px" opacity="0.25"></line><line x1="0" y1="179.07357399525725" x2="1389.4375" y2="179.07357399525725" fill="rgb(0, 0, 0)" stroke="rgb(60, 60, 60)" stroke-width="1px" opacity="0.25"></line><line x1="0" y1="158.18047005092018" x2="1389.4375" y2="158.18047005092018" fill="rgb(0, 0, 0)" stroke="rgb(60, 60, 60)" stroke-width="1px" opacity="0.25"></line><line x1="0" y1="143.35657689103343" x2="1389.4375" y2="143.35657689103343" fill="rgb(0, 0, 0)" stroke="rgb(60, 60, 60)" stroke-width="1px" opacity="0.25"></line><line x1="0" y1="131.8582720581732" x2="1389.4375" y2="131.8582720581732" fill="rgb(0, 0, 0)" stroke="rgb(60, 60, 60)" stroke-width="1px" opacity="0.25"></line><line x1="0" y1="122.4634729466964" x2="1389.4375" y2="122.4634729466964" fill="rgb(0, 0, 0)" stroke="rgb(60, 60, 60)" stroke-width="1px" opacity="0.25"></line><line x1="0" y1="114.52028347782117" x2="1389.4375" y2="114.52028347782117" fill="rgb(0, 0, 0)" stroke="rgb(60, 60, 60)" stroke-width="1px" opacity="0.25"></line><line x1="0" y1="107.6395797868096" x2="1389.4375" y2="107.6395797868096" fill="rgb(0, 0, 0)" stroke="rgb(60, 60, 60)" stroke-width="1px" opacity="0.25"></line><line x1="0" y1="101.57036900235931" x2="1389.4375" y2="101.57036900235931" fill="rgb(0, 0, 0)" stroke="rgb(60, 60, 60)" stroke-width="1px" opacity="0.25"></line><line x1="0" y1="96.1412749539494" x2="1389.4375" y2="96.1412749539494" fill="rgb(0, 0, 0)" stroke="rgb(60, 60, 60)" stroke-width="1px" opacity="0.25"></line><line x1="0" y1="60.42427784972562" x2="1389.4375" y2="60.42427784972562" fill="rgb(0, 0, 0)" stroke="rgb(60, 60, 60)" stroke-width="1px" opacity="0.25"></line><line x1="0" y1="39.53117390538854" x2="1389.4375" y2="39.53117390538854" fill="rgb(0, 0, 0)" stroke="rgb(60, 60, 60)" stroke-width="1px" opacity="0.25"></line><line x1="0" y1="24.707280745501798" x2="1389.4375" y2="24.707280745501798" fill="rgb(0, 0, 0)" stroke="rgb(60, 60, 60)" stroke-width="1px" opacity="0.25"></line><line x1="0" y1="13.208975912641586" x2="1389.4375" y2="13.208975912641586" fill="rgb(0, 0, 0)" stroke="rgb(60, 60, 60)" stroke-width="1px" opacity="0.25"></line><line x1="0" y1="3.8141768011647166" x2="1389.4375" y2="3.8141768011647166" fill="rgb(0, 0, 0)" stroke="rgb(60, 60, 60)" stroke-width="1px" opacity="0.25"></line></g></g></g><g><g><line x1="115.78645833333333" y1="0" x2="115.78645833333333" y2="378" fill="rgb(0, 0, 0)" stroke="rgb(153, 153, 153)" stroke-width="1.5px"></line></g></g><g><g><g><g><g><path stroke="rgb(0, 119, 187)" stroke-width="2px" d="M231.57291666666666,265.2880077756021L347.359375,265.4794644158435L463.1458333333333,266.5626915006838L578.9322916666667,266.47295747941894L694.71875,267.53029067667217L810.5052083333334,268.68785070025984L926.2916666666666,269.55424790738266L1042.078125,268.89432991859223L1157.8645833333335,269.20568726663214L1273.6510416666665,268.7370113973921" style="fill: none;" fill="none"></path></g><g><path stroke="rgb(255, 112, 67)" stroke-width="2px" d="M115.78645833333333,54.00000000000002L116.94432291666666,97.00274099629216L118.10218750000001,121.36425681642291L119.26005208333333,139.13040268185208L120.41791666666667,154.1881347551177L122.73364583333333,167.45674569611313L123.89151041666668,178.60720849436993L125.049375,190.28681194396282L126.20723958333333,195.82799748189802L128.52296875,203.93701994948538L129.68083333333334,209.86777620723035L130.83869791666666,223.15578101389934L131.9965625,232.8186084910718L134.31229166666665,228.71375238275144L135.47015625,242.40287638277098L136.62802083333332,243.29535810264665L137.78588541666667,241.12115623247956L140.10161458333332,246.7472761956861L141.25947916666667,257.5019321539862L142.41734375,250.5246389283143L143.57520833333334,251.84998957512636L145.8909375,247.10584122644303L147.04880208333333,253.00469685930824L148.20666666666668,264.76449100017777L149.36453125,269.2741211174572L151.68026041666667,267.28032272298685L152.838125,252.6708450960155L153.99598958333334,258.345293489964L155.15385416666666,252.91732624142804L157.46958333333333,259.8195776619483L158.62744791666665,264.9193116217669L159.7853125,260.46638532681754L160.94317708333332,253.24910473221578L163.25890625,255.99614908089333L164.41677083333335,258.4837396570071L165.57463541666667,251.93655772153687L166.7325,252.43535673031764L169.0482291666667,267.54687002673523L170.20609375,269.762563079393L171.36395833333333,273.49686368602994L172.52182291666665,268.1072689114595L174.83755208333332,263.1346446236225L175.99541666666667,274.7386168294888L177.15328125,261.796863361889L178.3111458333333,258.98566209758417L180.626875,269.12960905352605L181.78473958333333,255.0106188318841L182.94260416666665,264.245073810158L184.10046875,263.6433757030369L186.41619791666665,261.20517512510156L187.57406250000003,268.3272549109807L188.73192708333335,268.13131446683093L189.88979166666667,275.2140487754785L192.20552083333334,280.7832259616925L193.36338541666666,273.63661663062015L194.52125,264.08684872129254L195.67911458333333,263.19917329780736L197.99484374999997,253.58132096403875L199.15270833333335,251.39374048834756L200.31057291666667,259.00909903163597L201.4684375,270.97816973624396L203.78416666666666,261.20921818793414L204.94203124999999,258.16060564552123L206.09989583333336,261.2730722643018L207.25776041666668,262.9639841540052L209.57348958333336,252.16455820701208L210.73135416666668,254.23066817256566L211.88921875,279.90024769866653L213.04708333333332,266.7009702047464L215.3628125,263.1772531970858L216.5206770833333,267.3326327118521L217.6785416666667,270.4121960316398L218.83640625,272.2057533141809L221.15213541666668,259.68942934914526L222.31,266.94149151968867L223.46786458333332,270.6879656346429L224.62572916666664,276.0175825041588L226.94145833333332,272.78087914701973L228.09932291666664,270.98962286535004L229.25718750000001,271.570267125763L230.41505208333334,267.44314936886866L231.57291666666666,264.7617762365282L232.73078125,248.21618320443662L233.88864583333333,257.44958362574226L235.04651041666665,265.6785240934053L236.20437500000003,261.5027519386559L238.52010416666667,249.33209992804404L239.67796875,263.86231760169375L240.83583333333334,263.0940927866215L241.99369791666666,261.7043158236133L244.30942708333333,265.10067015500965L245.46729166666665,271.6986387152604L246.62515624999997,277.36840712024195L247.78302083333335,274.18057517405566L250.09875,264.9782835470931L251.25661458333335,277.71782967489594L252.41447916666667,265.7909674110043L253.57234375,271.5875667627983L255.8880729166667,269.2029419466604L257.0459375,273.2882665333537L258.2038020833333,283.25518169858515L259.3616666666667,288.218916070651L261.6773958333333,265.9286210503672L262.8352604166667,273.2696770672003L263.993125,269.91781208025844L265.15098958333334,281.3124953995865L267.46671875,277.40663370158813L268.6245833333333,278.9802524626756L269.7824479166666,289.58364099328486L270.9403125,293.30292258717293L273.25604166666665,287.51887905164944L274.41390625,270.1099853359288L275.57177083333335,274.78189322811306L276.72963541666667,270.9299869699806L279.0453645833333,273.63519557313344L280.20322916666663,270.3382059520766L281.36109375,263.7486070690359L282.51895833333333,276.20417703017745L284.8346875,294.381460425244L285.99255208333335,287.02639429781357L287.1504166666667,268.39194426315163L288.30828125,260.2040109990888L290.6240104166667,262.06599608603153L291.781875,254.44728400306582L292.93973958333333,261.0316838816721L294.09760416666666,262.7113167506958L296.41333333333336,277.01624929624165L297.5711979166667,282.4661108280247L298.7290625,273.57530825593835L299.8869270833333,277.9125493954652L302.20265625,278.3072788207633L303.36052083333334,272.3012274092182L304.51838541666666,275.4999554896118L305.67625,283.84279544397873L307.9919791666667,279.24710592349845L309.14984375,268.138605095653L310.3077083333333,249.888766436669L311.46557291666664,249.07018498307025L313.78130208333334,252.64350626748265L314.93916666666667,251.69765496166306L316.09703125,250.03768450688733L317.2548958333333,253.99996739166465L319.570625,266.1968327445496L320.7284895833333,276.19492207101575L321.88635416666665,274.1872338422242L323.04421875,259.95074815160285L325.35994791666667,254.81219335293756L326.5178125,257.98525543346744L327.67567708333337,272.01209836394804L328.8335416666667,267.3461213402146L331.14927083333333,266.64081490788766L332.30713541666665,275.0252922670511L333.465,274.7655991842408L334.62286458333335,278.95801731391185L336.93859375,260.47293649412205L338.0964583333334,263.66906601278566L339.2543229166667,278.0659086559847L340.4121875,282.75671968008936L342.72791666666666,272.03162933282385L343.88578125,271.69984336086026L345.0436458333333,266.85569863871615L346.2015104166667,258.1420287687104L347.359375,260.1485748201962L348.5172395833334,270.7323401944357L349.67510416666664,277.5775013552763L350.83296875,274.4906465453623L351.99083333333334,282.89928745375096L354.3065625,280.3191478930268L355.46442708333336,278.63332657799475L356.6222916666666,281.0113337034756L357.78015625,272.228143939161L360.09588541666665,276.9865020199758L361.25375,277.1952496759155L362.4116145833333,282.7397011661486L363.56947916666667,279.5707551775651L365.8852083333333,282.33109163425496L367.04307291666663,283.61832829011456L368.2009375,266.2495055651224L369.3588020833333,270.90190230639075L371.67453125000003,274.0186179772189L372.8323958333333,271.4136405164556L373.9902604166667,268.54110541847933L375.14812500000005,273.80706484756087L377.4638541666667,259.2044411627555L378.62171875,261.8650720799051L379.77958333333333,272.20505122290166L380.93744791666666,271.4775820604552L383.2531770833333,270.90082515119735L384.4110416666667,279.83720230427554L385.56890625000005,281.2487585811741L386.7267708333333,283.6470162041292L389.0425,286.0678177696077L390.20036458333334,288.3444046275076L391.35822916666666,272.53379456391724L392.51609375,275.9892457229193L394.8318229166667,290.62957089306536L395.98968749999995,304.4949204505789L397.1475520833333,281.58546781422694L398.3054166666667,278.26729270300996L400.62114583333334,270.5984596072401L401.77901041666667,272.8385664089087L402.936875,280.74221468109954L404.0947395833333,270.34509246747945L406.41046874999995,282.05612604947646L407.5683333333333,274.4859397327048L408.7261979166667,279.06091723682624L409.88406249999997,285.6100813050524L412.1997916666667,291.03845347333817L413.35765625,273.6815127458921L414.51552083333337,266.66278356661684L415.6733854166667,273.9272932254014L417.98911458333333,284.90159651684763L419.1469791666667,305.6401090346303L420.30484375,281.92014167461355L421.46270833333335,288.6668548652412L423.7784375,285.431484185105L424.9363020833334,277.95652273400555L426.09416666666664,267.1325532041278L427.25203125,266.45315301540523L429.56776041666666,271.03290903340485L430.725625,272.09460002119135L431.88348958333336,281.7661286136888L433.0413541666666,285.85666470052684L435.3570833333334,292.1670096861594L436.51494791666664,288.1216369206636L437.6728125,276.9925896425133L438.83067708333334,278.43484412708307L441.14640625,275.12640276690803L442.30427083333336,274.5540765084005L443.4621354166666,295.4232335698653L444.62,275.25384989621034L446.93572916666665,282.6315257721319L448.09359375,274.6413706199191L449.2514583333333,278.4167080878319L450.40932291666667,275.2122356116749L452.7250520833333,285.2387648943193L453.88291666666663,266.7563245822974L455.04078125,278.24319128622426L456.1986458333333,271.60657314057653L458.51437500000003,277.6884273283283L459.6722395833333,268.64988222756153L460.8301041666667,263.0553809547259L461.98796875000005,268.2434620658852L463.1458333333333,269.4670058405648L464.3036979166667,268.3443068359233L465.4615625,279.51448876963974L466.61942708333333,276.9135610164239L467.77729166666666,286.521341758867L470.0930208333333,288.22174390036975L471.2508854166667,290.5135924500531L472.40875000000005,277.3301470028519L473.5666145833333,285.1454969965378L475.88234375,274.8231150625878L477.04020833333334,272.0473792512169L478.19807291666666,279.25052496738004L479.3559375,289.02484577817074L481.6716666666667,281.7550482690268L482.82953124999995,272.9232371969446L483.9873958333333,270.56301437414805L485.1452604166667,279.0217049680524L487.46098958333334,282.74773752585344L488.61885416666667,281.02358442859247L489.77671875,292.5604252325937L490.9345833333333,299.085934848516L493.25031249999995,296.88383195827515L494.4081770833333,290.26406222230213L495.5660416666667,286.2432716981934L496.72390624999997,276.17117326911386L499.0396354166667,277.1297544563467L500.1975,270.81323712161367L501.35536458333337,274.37472551593925L502.5132291666667,266.49564301176684L504.82895833333333,269.7765835130283L505.9868229166667,267.416128476164L507.1446875,267.9420014430105L508.30255208333335,276.5244867936898L510.61828125,276.98185837761804L511.7761458333334,280.98156303444694L512.9340104166666,293.1107642041311L514.091875,299.19994174039425L516.4076041666666,302.670762853206L517.56546875,288.2189494447275L518.7233333333334,283.0049369121561L519.8811979166667,280.8111359728518L522.1969270833333,291.7761459609495L523.3547916666666,287.45220140338023L524.51265625,279.7743157148288L525.6705208333334,276.1536540976942L527.98625,276.79087362167525L529.1441145833334,276.2606002350683L530.3019791666667,268.6971882166765L531.45984375,277.5146444739841L533.7755729166666,270.9835808807059L534.9334375,262.25184106728256L536.0913020833333,274.9597499259122L537.2491666666666,259.01964883747763L539.5648958333333,258.7510002122222L540.7227604166667,264.9657432588239L541.880625,271.97409649876414L543.0384895833333,267.43679827617785L545.35421875,268.63990811486485L546.5120833333333,276.4337622268542L547.6699479166666,270.0329421320459L548.8278125,267.5888464891594L551.1435416666667,268.28990421092345L552.30140625,273.89391397122927L553.4592708333333,288.4017656824924L554.6171354166667,280.1215548641622L556.9328645833333,277.84379219387796L558.0907291666666,277.2444244942236L559.24859375,285.3416339328133L560.4064583333333,291.2025790644549L562.7221875,289.1106988032466L563.8800520833333,290.6199722267747L565.0379166666667,295.85290600229615L566.19578125,284.2702698770279L568.5115104166667,280.12522927779673L569.669375,283.95427440093556L570.8272395833334,294.67502045722625L571.9851041666667,300.4944470030759L574.3008333333333,299.2825510808274L575.4586979166667,289.6139373834298L576.6165625,291.90863729669167L577.7744270833333,287.78467050791863L578.9322916666667,291.8139276490059L580.09015625,292.74822956338767L581.2480208333334,287.43768579052335L582.4058854166667,287.80832118470414L583.56375,283.5324770158272L585.8794791666667,287.3792293663752L587.03734375,289.29197784344245L588.1952083333333,276.4755041727812L589.3530729166667,288.17268286129143L591.6688020833334,287.6717056673775L592.8266666666667,286.9167321850786L593.98453125,289.1113652902641L595.1423958333334,299.14993947817163L597.458125,269.5737491317357L598.6159895833333,274.83094676878926L599.7738541666666,280.35546139743667L600.93171875,288.59146164354735L603.2474479166666,275.428501416036L604.4053125,279.61235484125245L605.5631770833334,283.28358663710964L606.7210416666667,294.0182983529639L609.0367708333333,283.66512938141L610.1946354166666,288.3559148040303L611.3525,279.5031697717264L612.5103645833334,265.7169173335985L614.82609375,262.6848268107711L615.9839583333334,265.8930468463095L617.1418229166667,283.7437091983621L618.2996875,279.3430278095078L620.6154166666666,284.7621480624455L621.77328125,282.79667114665784L622.9311458333333,274.1817460021146L624.0890104166666,289.8374836460355L626.4047395833333,279.5504473764212L627.5626041666667,279.02269464025346L628.72046875,289.3363400943358L629.8783333333333,275.55063850509333L632.1940625,283.351158349362L633.3519270833333,282.27756663463424L634.5097916666666,283.9007881510228L635.66765625,278.14542176492574L637.9833854166667,280.9877315586249L639.14125,287.3274667781847L640.2991145833333,279.2913735455525L641.4569791666667,278.6441758960132L643.7727083333333,294.29983224698276L644.9305729166666,291.0238342498199L646.0884375,279.37200319620223L647.2463020833333,275.1369785120156L649.56203125,289.884466378683L650.7198958333333,283.5356873282568L651.8777604166667,290.1471518430232L653.035625,279.57801551769904L655.3513541666667,291.88977205300654L656.50921875,290.14944077254955L657.6670833333334,287.22585995524867L658.8249479166667,281.3838044610667L661.1406770833333,286.53620122531294L662.2985416666667,280.9073072142416L663.45640625,280.9802284930535L664.6142708333333,283.1290598252468L666.93,275.41445914043516L668.0878645833334,259.28247806086915L669.2457291666667,274.40195518498837L670.40359375,271.1959457721549L672.7193229166667,280.6314866401424L673.8771875,285.4970872347832L675.0350520833333,281.2298620644227L676.1929166666667,279.43310161279317L678.5086458333334,286.6193358702444L679.6665104166667,282.01206176632326L680.824375,282.2215100179705L681.9822395833334,297.51116010356327L684.29796875,284.9450577164277L685.4558333333333,276.7040479718924L686.6136979166666,279.4180613880684L687.7715625,280.1556275154568L690.0872916666666,291.67528098325266L691.24515625,280.64689159308125L692.4030208333334,291.7002178956245L693.5608854166667,283.31676976219245L694.71875,292.97502631177525L695.8766145833333,291.7846975195957L697.0344791666668,297.0194525438893L698.19234375,289.5154328986325L699.3502083333333,283.46852665769575L701.6659375,290.06911986117444L702.8238020833334,297.6015124194168L703.9816666666667,302.31290713038715L705.1395312499999,303.7276013334079L707.4552604166666,309.6012870166549L708.613125,315.489613764979L709.7709895833334,297.868484679989L710.9288541666667,292.45053289559644L713.2445833333333,288.5803130899892L714.4024479166667,285.09475888494393L715.5603125,289.27807888522995L716.7181770833333,296.43769494510184L719.03390625,282.0364292550705L720.1917708333333,286.5440688153243L721.3496354166666,291.5867607611257L722.5075,282.6589495740008L724.8232291666666,286.42653166742133L725.9810937499999,290.1380575200627L727.1389583333333,279.16401373608585L728.2968229166667,285.52234630135473L730.6125520833334,292.56593350097734L731.7704166666666,300.4489094678997L732.9282812499999,286.07897401811493L734.0861458333333,289.9389471634382L736.401875,291.68533450025836L737.5597395833335,298.57584818094955L738.7176041666665,282.6080590054118L739.87546875,280.42073004394183L742.1911979166667,281.4860106164728L743.3490625000001,276.34660651799504L744.5069270833334,284.5815549770626L745.6647916666666,284.49388144329674L747.9805208333333,273.4269263352976L749.1383854166667,281.8155026510747L750.2962500000001,283.648330960053L751.4541145833334,275.0090154610055L753.76984375,277.83733460205895L754.9277083333334,285.4495109283913L756.0855729166667,269.9356034893644L757.2434375,279.06043361507L759.5591666666667,270.65813930419563L760.71703125,290.8129113995012L761.8748958333333,279.00643041698885L763.0327604166667,287.0059472707161L765.3484895833333,290.26024851120445L766.5063541666666,285.10333167854907L767.66421875,277.27984670735566L768.8220833333334,279.9782255510866L771.1378125000001,278.30035385286686L772.2956770833333,280.4819434103647L773.4535416666666,290.8482876904266L774.61140625,287.86199932210405L776.9271354166667,289.40054281081547L778.085,284.66798177094375L779.2428645833332,281.44787536954345L780.4007291666667,285.48851120680445L782.7164583333333,278.9027468574148L783.8743229166668,285.15298649860597L785.0321875,284.12379209795114L786.1900520833333,279.67490841088664L788.50578125,276.17043945179375L789.6636458333334,284.6185630147217L790.8215104166667,284.44391818769975L791.9793749999999,285.07142577098404L794.2951041666666,283.68903268326306L795.45296875,294.38457187713277L796.6108333333334,290.33382305994246L797.7686979166667,268.3724486440179L800.0844270833333,276.33025936532584L801.2422916666667,278.95291525571474L802.40015625,289.91549005437736L803.5580208333333,285.6873607096001L805.87375,284.6639559427587L807.0316145833333,290.03072684061203L808.1894791666666,290.0393538498751L809.34734375,288.8978553698593L810.5052083333334,304.4187232921702L811.6630729166666,304.2704617192705L812.8209374999999,296.9681580925984L813.9788020833333,288.78498916320115L815.1366666666667,286.6955205135398L817.4523958333334,289.1218073726683L818.6102604166666,296.57962069541776L819.7681249999999,295.28448931859236L820.9259895833333,311.0175314226087L823.24171875,290.66124977795783L824.3995833333335,293.9361641249273L825.5574479166665,304.19062668456803L826.7153125,296.78536237785914L829.0310416666667,294.20761944118374L830.1889062500001,267.23492601285346L831.3467708333334,270.7220689142814L832.5046354166666,275.0927438423972L834.8203645833333,288.65751187170224L835.9782291666667,276.7958636473449L837.1360937500001,276.1334980135187L838.2939583333334,280.73842386582726L840.6096875,271.7500453445646L841.7675520833334,275.2394416367551L842.9254166666667,275.80254009304724L844.08328125,282.3496830229809L846.3990104166667,304.37109088410284L847.556875,300.8219309228611L848.7147395833333,307.5194041788696L849.8726041666667,304.53126965893654L852.1883333333333,316.4747696133061L853.3461979166666,324L854.5040625,298.0523333353449L855.6619270833334,294.4008163001065L857.9776562500001,290.7165571238589L859.1355208333333,291.8804348958722L860.2933854166666,301.3810884923277L861.45125,290.7358202093896L863.7669791666667,289.48151860598267L864.92484375,273.11953381121054L866.0827083333332,290.667443699932L867.2405729166667,284.7622248886442L869.5563020833333,276.9662873585716L870.7141666666668,274.24803363372916L871.87203125,281.7508967530285L873.0298958333333,278.31460206151377L875.345625,291.66782334848045L876.5034895833334,283.6128724959555L877.6613541666667,268.9602799187602L878.8192187499999,272.8420208462199L881.1349479166666,271.5883859198035L882.2928125,273.4141931965369L883.4506770833334,269.9594919626444L884.6085416666667,276.88853619506745L886.9242708333333,281.38460131272774L888.0821354166667,285.14853621246397L889.24,278.9697163243584L890.3978645833333,289.0333134561899L892.71359375,300.37060497820715L893.8714583333333,282.9888105248102L895.0293229166666,287.742651197182L896.1871875,294.4795985901392L898.5029166666666,289.57732492877557L899.6607812499999,289.03008871661353L900.8186458333333,268.89004903558236L901.9765104166667,282.35601818278076L904.2922395833334,286.7196518635625L905.4501041666666,289.7332822376858L906.6079687499999,289.91859568926026L907.7658333333333,289.40955104335944L910.0815625,289.364969276364L911.2394270833335,294.54198622082123L912.3972916666665,289.9769862240801L913.55515625,284.93327037380226L915.8708854166667,288.5143711325132L917.0287500000001,286.9016339853546L918.1866145833334,290.84500644518533L919.3444791666666,283.1287654896284L921.6602083333333,276.059794739058L922.8180729166667,279.07932274171867L923.9759375000001,284.77798081572513L925.1338020833334,284.2066066461916L926.2916666666666,279.32997787613147L927.44953125,278.3972200070668L928.6073958333334,281.43509982284684L929.7652604166667,294.478600193099L930.923125,287.2714867459601L933.2388541666667,291.498635215683L934.39671875,291.25929266546717L935.5545833333333,295.38199948882635L936.7124479166667,279.5885622168315L939.0281770833333,289.6173436973163L940.1860416666666,294.5204898466154L941.34390625,300.4838197165224L942.5017708333334,302.5179551518402L944.8175000000001,292.2167166317687L945.9753645833333,292.04696545979016L947.1332291666666,295.7097690404009L948.29109375,279.216172212679L950.6068229166667,283.3532021624127L951.7646875,292.3827626316979L952.9225520833332,291.43295651239663L954.0804166666667,285.70288181775027L956.3961458333333,294.9640040593528L957.5540104166668,307.0346675505346L958.711875,292.1138476048542L959.8697395833333,266.95362057069144L962.18546875,272.85334576837306L963.3433333333334,284.19177758965355L964.5011979166667,284.45708432618454L965.6590624999999,288.97004162250465L967.9747916666666,283.21142727076443L969.13265625,283.17572138451703L970.2905208333334,276.2922599692812L971.4483854166667,274.6345275575475L973.7641145833333,264.5758607466799L974.9219791666667,276.3212184104416L976.07984375,281.63364133763L977.2377083333333,286.29075252586597L979.5534375,275.2499927740486L980.7113020833333,273.35619872816824L981.8691666666666,284.75066309536464L983.02703125,284.4263900589858L985.3427604166666,285.14565792151336L986.5006249999999,297.67146412685076L987.6584895833333,287.25821722989514L988.8163541666667,280.1444051408641L991.1320833333334,289.7826720509674L992.2899479166666,287.95490080471484L993.4478124999999,273.8132096870187L994.6056770833333,274.2475783097858L996.92140625,291.22543358645515L998.0792708333335,296.54083117592904L999.2371354166665,304.18666984575725L1000.395,300.5023453747763L1002.7107291666667,298.60972340328595L1003.8685937500001,295.0848514112323L1005.0264583333334,275.9322988500631L1006.1843229166666,280.8522322935612L1008.5000520833333,286.39935738384577L1009.6579166666667,286.56251314199596L1010.8157812500001,289.0286458688115L1011.9736458333334,293.0271545598574L1014.289375,294.3242330642692L1015.4472395833334,292.1722588384278L1016.6051041666667,301.4946582725404L1017.76296875,290.998742363559L1020.0786979166667,286.60347459733975L1021.2365625,289.9933719752227L1022.3944270833333,288.07218715128374L1023.5522916666667,300.4136886383876L1025.8680208333333,298.8252310551471L1027.0258854166666,303.5614622621005L1028.18375,283.31177365480124L1029.3416145833332,297.7091275498287L1031.65734375,299.46910418841327L1032.8152083333332,292.39344141642704L1033.9730729166665,295.69646110275687L1035.1309375,292.12996467554507L1037.4466666666667,294.2060536864967L1038.60453125,282.48101626314974L1039.7623958333334,277.9115777760524L1040.9202604166667,283.2637957297516L1042.078125,268.50901815866376L1043.2359895833333,272.2446493993961L1044.3938541666666,276.75795046824504L1045.55171875,286.5626993517676L1046.7095833333333,292.6972026162953L1049.0253125,284.65477015154755L1050.1831770833335,279.21034885136686L1051.3410416666668,275.4718126749476L1052.49890625,274.6343890962313L1054.8146354166668,280.44785623315806L1055.9725,269.43663410307784L1057.1303645833334,282.31425239467353L1058.2882291666667,286.270877689362L1060.6039583333334,283.02086823348986L1061.7618229166667,283.8828774128368L1062.9196875,284.3480117289073L1064.0775520833333,282.7408431173552L1066.39328125,278.4065647076987L1067.5511458333333,296.6228192721778L1068.7090104166666,293.4462531089195L1069.866875,294.8200640645337L1072.1826041666666,294.0177018462182L1073.34046875,278.3517931861752L1074.4983333333332,288.2918818751162L1075.6561979166668,295.1376868906729L1077.9719270833334,288.7574876836441L1079.1297916666665,293.12092516358456L1080.28765625,304.2719677252241L1081.4455208333334,298.95532702658153L1083.76125,307.01714825641244L1084.9191145833333,282.09785331587335L1086.0769791666667,278.5635823628774L1087.23484375,274.2939198960736L1089.5505729166666,281.1807570394691L1090.7084375,289.4106178053289L1091.8663020833335,294.45589816426036L1093.0241666666666,292.0053128148014L1095.3398958333332,284.8680409328141L1096.4977604166668,290.54923428474376L1097.655625,301.6929198273426L1098.8134895833334,302.90336630125665L1101.12921875,298.2239998301592L1102.2870833333334,290.23191070205877L1103.4449479166667,294.2232824280868L1104.6028125,284.7467415081358L1106.9185416666667,287.1412006586904L1108.07640625,292.05538167676815L1109.2342708333333,281.05584169128855L1110.3921354166666,278.6650105838935L1112.7078645833333,294.4480925643171L1113.8657291666666,278.66405012907904L1115.02359375,278.85547504016387L1116.1814583333332,275.7755159660748L1118.4971875,280.2357232358818L1119.6550520833332,287.13847605590485L1120.8129166666665,301.10834667406533L1121.97078125,299.428796195609L1124.2865104166667,287.4107384008797L1125.444375,287.68644534656994L1126.6022395833334,278.4681814123013L1127.7601041666667,285.790049604621L1130.0758333333333,285.37295846451195L1131.2336979166666,285.6407001756015L1132.3915625,297.4414603670956L1133.5494270833333,288.0934665470918L1135.86515625,291.73650390804346L1137.0230208333335,290.88801554729486L1138.1808854166668,293.4119565236055L1139.33875,296.9346042776961L1141.6544791666668,288.68891817625405L1142.81234375,269.10178537618754L1143.9702083333334,269.2705770315773L1145.1280729166667,264.6702497056233L1147.4438020833334,266.77835956658777L1148.6016666666667,264.15999086367157L1149.75953125,261.77487177319495L1150.9173958333333,273.405485317358L1153.233125,283.9677042745039L1154.3909895833333,279.2217130722865L1155.5488541666666,275.8648040873897L1156.70671875,292.6688392755242L1157.8645833333335,297.38117647441226L1159.0224479166666,292.00684201410917L1160.1803125,277.35317407439425L1161.3381770833332,275.58564897391136L1162.4960416666668,276.6366735229067L1164.8117708333334,289.9019688203869L1165.9696354166665,291.2774917440322L1167.1275,290.3049518670819L1168.2853645833334,296.3609084543749L1170.60109375,294.8452843589235L1171.7589583333333,298.08097425057747L1172.9168229166667,301.75904673088127L1174.0746875,282.54933627885435L1176.3904166666666,301.23039634341416L1177.54828125,295.5108406239636L1178.7061458333335,291.184161104789L1179.8640104166666,281.5612549381878L1182.1797395833332,274.76352284016326L1183.3376041666668,276.03457994642474L1184.49546875,289.9760543857985L1185.6533333333334,295.2565007338074L1187.9690625,289.00690503628033L1189.1269270833334,290.7994298481308L1190.2847916666667,281.3496446910748L1191.44265625,295.10198996964937L1193.7583854166667,286.48762916539374L1194.91625,287.2663888484453L1196.0741145833333,292.31020009800017L1197.2319791666666,304.29422622445816L1199.5477083333333,295.56929276092944L1200.7055729166666,286.4051926657182L1201.8634375,285.2815378215443L1203.0213020833332,302.51879080719203L1205.33703125,283.1317354832512L1206.4948958333332,295.57877948002044L1207.6527604166665,286.3217750809996L1208.810625,277.8214806914573L1211.1263541666667,273.12396327347244L1212.28421875,279.82518102701164L1213.4420833333334,292.76130525416704L1214.5999479166667,299.4451054466314L1216.9156770833333,283.71918791751483L1218.0735416666666,282.4870180947975L1219.23140625,287.4844280798535L1220.3892708333333,282.6104966371315L1222.705,274.7458890003223L1223.8628645833335,274.9541563992313L1225.0207291666668,278.66491668188957L1226.17859375,280.94427302060507L1228.4943229166668,280.5091923347456L1229.6521875,283.082782144127L1230.8100520833334,292.41183682346247L1231.9679166666667,302.3725546064136L1234.2836458333334,294.14298892368544L1235.4415104166667,301.3595822289562L1236.599375,296.7989745628217L1237.7572395833333,302.2814424373754L1240.07296875,306.29050556855594L1241.2308333333333,296.8945357323812L1242.3886979166666,303.0468757839403L1243.5465625,292.1336779928986L1245.8622916666666,299.8010180742373L1247.02015625,279.47694204604926L1248.1780208333332,284.58904998249386L1249.3358854166668,286.6648129269126L1251.6516145833334,284.0328284666186L1252.8094791666665,284.39627580289715L1253.96734375,277.6133017674926L1255.1252083333334,285.58625663464056L1257.4409375,290.6529789424828L1258.5988020833333,296.46935589790814L1259.7566666666667,289.74760862158L1260.91453125,293.69009372087623L1263.2302604166666,302.50307996797056L1264.388125,310.57879647859187L1265.5459895833335,312.11274248930704L1266.7038541666666,289.88265258559454L1269.0195833333332,291.571643599214L1270.1774479166668,281.1119995779432L1271.3353125,288.26120367424284L1272.4931770833334,292.1555301054748" style="fill: none;" fill="none"></path></g></g></g></g><g opacity="0.2"><g><g><g><path stroke="rgb(0, 119, 187)" stroke-width="2px" d="M231.57291666666666,265.2880077756021L347.359375,265.59564200696235L463.1458333333333,267.63678283261055L578.9322916666667,266.36615621470355L694.71875,268.96711981215606L810.5052083333334,270.3624723202424L926.2916666666666,270.8428345603964L1042.078125,267.9289107832296L1157.8645833333335,269.6775886651445L1273.6510416666665,268.0349846439887" style="fill: none;" fill="none"></path></g><g><path stroke="rgb(255, 112, 67)" stroke-width="2px" d="M115.78645833333333,54.00000000000002L116.94432291666666,177.11998629848074L118.10218750000001,166.9224354136703L119.26005208333333,173.91978333655607L120.41791666666667,185.01193888416867L122.73364583333333,194.94012208671478L123.89151041666668,200.95457734602033L125.049375,214.761642479246L126.20723958333333,205.47701041679875L128.52296875,219.32737383591137L129.68083333333334,220.44710307716826L130.83869791666666,253.84788474405778L131.9965625,252.32543904822657L134.31229166666665,223.0072401267399L135.47015625,274.69678392912624L136.62802083333332,244.6922606306569L137.78588541666667,237.96033444314247L140.10161458333332,256.7642428435461L141.25947916666667,280.1325032726293L142.41734375,241.39021584929483L143.57520833333334,253.94835032254107L145.8909375,240.59354987114978L147.04880208333333,263.5942094203035L148.20666666666668,290.45912752144073L149.36453125,277.05089217169086L151.68026041666667,264.36869815084907L152.838125,236.14451204185022L153.99598958333334,268.4648280757129L155.15385416666666,245.57532105635414L157.46958333333333,272.59200127184323L158.62744791666665,273.8630366572358L159.7853125,254.31472730496938L160.94317708333332,243.84653225051713L163.25890625,260.50986345291466L164.41677083333335,262.5430897103146L165.57463541666667,243.28772347823931L166.7325,253.20882577625582L169.0482291666667,305.58030307164137L170.20609375,273.35243314062075L171.36395833333333,279.7989799295669L172.52182291666665,260.8111682293117L174.83755208333332,256.342306083429L175.99541666666667,299.9429606299557L177.15328125,246.7091627425645L178.3111458333333,254.9569218304554L180.626875,290.0159323930287L181.78473958333333,238.89842699927888L182.94260416666665,282.66964651084163L184.10046875,262.7351976523035L186.41619791666665,257.6809995718527L187.57406250000003,281.59637172332447L188.73192708333335,267.832640296871L189.88979166666667,288.39375858021464L192.20552083333334,290.6843919340103L193.36338541666666,264.31255856886617L194.52125,252.2144835830843L195.67911458333333,261.868542369605L197.99484374999997,241.64023640008133L199.15270833333335,248.21346088039112L200.31057291666667,273.41843490592504L201.4684375,297.3418569078325L203.78416666666666,249.1162745471837L204.94203124999999,253.81514517613968L206.09989583333336,266.4375588252644L207.25776041666668,265.6664684613373L209.57348958333336,239.0592646610267L210.73135416666668,257.5651127953826L211.88921875,512.1476959393488L213.04708333333332,251.38539663036545L215.3628125,258.20806227033603L216.5206770833333,274.4276582313244L217.6785416666667,275.5175577894504L218.83640625,275.0799027191677L221.15213541666668,244.98292397236648L222.31,280.5075714869537L223.46786458333332,277.01274450047157L224.62572916666664,285.42684872824884L226.94145833333332,268.18689542715754L228.09932291666664,268.3613735624199L229.25718750000001,272.47249059391595L230.41505208333334,261.7006000512751L231.57291666666666,260.907683193074L232.73078125,230.1233611550929L233.88864583333333,275.8713936637284L235.04651041666665,281.5582387129845L236.20437500000003,255.6987369275315L238.52010416666667,234.93976385686236L239.67796875,299.47046078364997L240.83583333333334,261.93921140175286L241.99369791666666,259.6457906525504L244.30942708333333,270.7797073711469L245.46729166666665,283.7947942197055L246.62515624999997,287.47821830372663L247.78302083333335,269.65096267764426L250.09875,253.4594984283865L251.25661458333335,306.6460390183244L252.41447916666667,251.62264110744806L253.57234375,281.96224457931027L255.8880729166667,265.7519491376973L257.0459375,280.25007465780624L258.2038020833333,303.64955807543214L259.3616666666667,296.89016350571825L261.6773958333333,243.7509613022632L262.8352604166667,287.0405029936755L263.993125,265.1727002515815L265.15098958333334,305.86744095237987L267.46671875,271.9452660765644L268.6245833333333,281.487688156873L269.7824479166666,311.7771962046695L270.9403125,299.57710006339624L273.25604166666665,279.7544021436783L274.41390625,251.3519793546823L275.57177083333335,282.87566152937495L276.72963541666667,265.5376056223217L279.0453645833333,278.07521930842466L280.20322916666663,265.66501037873167L281.36109375,255.05144003867153L282.51895833333333,304.1677650845181L284.8346875,348.16488855656075L285.99255208333335,277.47139338791703L287.1504166666667,248.72262170953255L288.30828125,249.74557946036083L290.6240104166667,265.05509416311054L291.781875,244.6029968663482L292.93973958333333,273.0979806970255L294.09760416666666,265.3949935478868L296.41333333333336,311.72135276294443L297.5711979166667,292.12140789148543L298.7290625,262.3776121141095L299.8869270833333,285.35587498576075L302.20265625,278.917788397302L303.36052083333334,264.2765519769457L304.51838541666666,280.81995037303966L305.67625,300.00210570478146L307.9919791666667,272.9180085009105L309.14984375,254.73737493090343L310.3077083333333,230.50138468542374L311.46557291666664,247.84109030278802L313.78130208333334,258.6473717221541L314.93916666666667,250.28179244776942L316.09703125,247.5945584296865L317.2548958333333,260.72906360882064L319.570625,293.3015868521764L320.7284895833333,296.6754649643178L321.88635416666665,271.25626315603535L323.04421875,243.7386785235416L325.35994791666667,247.81830685378122L326.5178125,263.2589045052187L327.67567708333337,305.6291617639319L328.8335416666667,260.9300683388323L331.14927083333333,265.5789124309922L332.30713541666665,291.28734720576233L333.465,274.3703617119994L334.62286458333335,286.123688812627L336.93859375,240.91267674213435L338.0964583333334,268.98436565313347L339.2543229166667,313.1370422588803L340.4121875,290.8876004432639L342.72791666666666,258.9980320906712L343.88578125,271.1957709515546L345.0436458333333,260.220410139417L346.2015104166667,247.1286942388892L347.359375,263.381865891225L348.5172395833334,292.86913775004444L349.67510416666664,290.2220634481846L350.83296875,270.09448602822783L351.99083333333334,299.2211007349787L354.3065625,276.6019550500025L355.46442708333336,276.15365881089696L356.6222916666666,284.88065512114747L357.78015625,261.1422981067584L360.09588541666665,285.2503281778489L361.25375,277.51662570013605L362.4116145833333,292.5897726068153L363.56947916666667,275.0660563506167L365.8852083333333,286.86825410207143L367.04307291666663,285.65445452460574L368.2009375,247.52194091542023L369.3588020833333,278.9574066962556L371.67453125000003,279.19074747484495L372.8323958333333,267.66280027348023L373.9902604166667,264.4302155753755L375.14812500000005,283.0867876238836L377.4638541666667,242.68381581558378L378.62171875,266.2267565967015L379.77958333333333,293.6436639229642L380.93744791666666,270.38289606269166L383.2531770833333,270.0297674089187L384.4110416666667,297.48893897338974L385.56890625000005,283.48863135919123L386.7267708333333,287.5513708917774L389.0425,290.01121763107244L390.20036458333334,292.038833130376L391.35822916666666,255.02314012575357L392.51609375,281.7764054905177L394.8318229166667,326.68636096221394L395.98968749999995,337.49314931210745L397.1475520833333,259.01162357488425L398.3054166666667,273.56631176440555L400.62114583333334,260.6995268997077L401.77901041666667,276.4703160925016L402.936875,295.8350031253889L404.0947395833333,257.63026152451846L406.41046874999995,307.5968940108822L407.5683333333333,264.6946649291459L408.7261979166667,286.9650140930807L409.88406249999997,297.59895697977805L412.1997916666667,300.64965295961207L413.35765625,254.96298268329932L414.51552083333337,257.4813793140451L415.6733854166667,287.52194069729654L417.98911458333333,308.18407266443177L419.1469791666667,378.95062654819094L420.30484375,258.8392747921841L421.46270833333335,301.0919907412466L423.7784375,280.83925393221824L424.9363020833334,268.26958141859643L426.09416666666664,254.00363206491465L427.25203125,265.42961588946423L429.56776041666666,278.9463317026435L430.725625,273.76436645035477L431.88348958333336,301.3536577808144L433.0413541666666,292.82836500759856L435.3570833333334,303.63556709214726L436.51494791666664,282.4826535056351L437.6728125,263.5718091881878L438.83067708333334,280.72522819825804L441.14640625,270.4381846371399L442.30427083333336,273.6896176396465L443.4621354166666,369.99196858787803L444.62,254.49468688124912L446.93572916666665,296.4869420568066L448.09359375,264.39472990450685L449.2514583333333,284.7952812098834L450.40932291666667,270.66068907134144L452.7250520833333,305.79808833820636L453.88291666666663,247.1979977386554L455.04078125,303.08283805777614L456.1986458333333,262.85592866338686L458.51437500000003,288.66625880950926L459.6722395833333,257.29939871817226L460.8301041666667,255.51499157150207L461.98796875000005,277.3653600029506L463.1458333333333,271.3992470604568L464.3036979166667,266.6707994747255L465.4615625,303.38468213224013L466.61942708333333,273.1682042250067L467.77729166666666,305.93698834407775L470.0930208333333,290.9400614971526L471.2508854166667,294.23427890395834L472.40875000000005,262.02852078707343L473.5666145833333,300.0275833636494L475.88234375,262.18148971783484L477.04020833333334,268.06624539619526L478.19807291666666,292.7045594559203L479.3559375,308.8911971855221L481.6716666666667,272.29427590417754L482.82953124999995,261.78679648101917L483.9873958333333,267.14541363787805L485.1452604166667,295.4676053359755L487.46098958333334,289.03447045245133L488.61885416666667,278.48981380725183L489.77671875,317.5552874457392L490.9345833333333,311.0229310974133L493.25031249999995,293.68351639398094L494.4081770833333,281.5325683267438L495.5660416666667,280.63550543011047L496.72390624999997,263.7762311053266L499.0396354166667,278.6334303281458L500.1975,262.4287348620975L501.35536458333337,280.356772427798L502.5132291666667,256.3686858450264L504.82895833333333,275.24546890138697L505.9868229166667,263.99820979794356L507.1446875,268.758003526036L508.30255208333335,293.2791205330689L510.61828125,277.69035625423254L511.7761458333334,287.78126611655824L512.9340104166666,319.99393359366894L514.091875,310.1933955987434L516.4076041666666,308.48610080004534L517.56546875,271.82492748948533L518.7233333333334,275.91986924630805L519.8811979166667,277.6222726111894L522.1969270833333,315.03095934015556L523.3547916666666,281.4618043666581L524.51265625,269.8655250500894L525.6705208333334,271.05881275330256L527.98625,277.78240655961287L529.1441145833334,275.4588440114823L530.3019791666667,258.91332236037675L531.45984375,294.86248578298466L533.7755729166666,262.35313506857284L534.9334375,251.2196398229478L536.0913020833333,303.7793291462613L537.2491666666666,241.40534251098012L539.5648958333333,258.34222221544354L540.7227604166667,276.22814405805156L541.880625,284.9853941945381L543.0384895833333,261.1801413543684L545.35421875,270.5388924449356L546.5120833333333,291.2647385690513L547.6699479166666,261.5515377459549L548.8278125,264.05662945475814L551.1435416666667,269.3825162298239L552.30140625,283.8671876405406L553.4592708333333,323.9193676847747L554.6171354166667,269.56488155349473L556.9328645833333,274.53930898492723L558.0907291666666,276.3397129261232L559.24859375,300.90062440692856L560.4064583333333,301.7124061503119L562.7221875,286.06278958486536L563.8800520833333,293.0209075070613L565.0379166666667,305.06561223768796L566.19578125,270.42173366018716L568.5115104166667,274.3600225313681L569.669375,290.43317565679223L570.8272395833334,317.2097844266193L571.9851041666667,310.9170102666553L574.3008333333333,297.4799155378414L575.4586979166667,277.62173654374106L576.6165625,295.63423190734295L577.7744270833333,282.0461063784969L578.9322916666667,298.66949469913004L580.09015625,294.21292203212937L581.2480208333334,280.23640090388517L582.4058854166667,288.3812227751881L583.56375,277.60245157183016L585.8794791666667,293.8912742897102L587.03734375,292.36661590355897L588.1952083333333,261.4994384199799L589.3530729166667,313.66975050947735L591.6688020833334,286.91370676209806L592.8266666666667,285.7814098512706L593.98453125,292.6651521578193L595.1423958333334,319.7426775720622L597.458125,243.182640444511L598.6159895833333,284.0928771983109L599.7738541666666,290.16438890721423L600.93171875,304.48844435842574L603.2474479166666,260.144933774183L604.4053125,286.7616772373087L605.5631770833334,289.46853672547337L606.7210416666667,316.5938693185839L609.0367708333333,270.99332370470466L610.1946354166666,296.48674527659665L611.3525,268.3449753443712L612.5103645833334,249.88987327074156L614.82609375,258.36129765929047L615.9839583333334,271.2301980345775L617.1418229166667,335.55030952169096L618.2996875,273.2565796074782L620.6154166666666,294.35437928744625L621.77328125,279.92450201424856L622.9311458333333,263.2717496117218L624.0890104166666,330.2766448006249L626.4047395833333,266.9435152294786L627.5626041666667,278.2247008669258L628.72046875,310.7002940498252L629.8783333333333,259.7240693489297L632.1940625,298.19797587369146L633.3519270833333,280.6753847623653L634.5097916666666,286.49056482264655L635.66765625,270.4147332744709L637.9833854166667,285.6698686395491L639.14125,298.8596447316906L640.2991145833333,268.9953897526167L641.4569791666667,277.6683952872847L643.7727083333333,334.7386235833588L644.9305729166666,286.378195844727L646.0884375,265.45885252907965L647.2463020833333,269.2582861121955L649.56203125,326.38262119282933L650.7198958333333,275.1140614583571L651.8777604166667,302.2730309762388L653.035625,266.69549785516296L655.3513541666667,319.3736383760919L656.50921875,287.59286478173L657.6670833333334,283.0467743487187L658.8249479166667,273.55110088281583L661.1406770833333,295.5860233976627L662.2985416666667,273.326123041511L663.45640625,281.0921185047963L664.6142708333333,286.60450981792764L666.93,265.4657241871951L668.0878645833334,241.5154388440851L669.2457291666667,312.4696161234857L670.40359375,266.6423742088068L672.7193229166667,299.5866227499766L673.8771875,293.97305434960043L675.0350520833333,275.3106679043341L676.1929166666667,276.79711578652586L678.5086458333334,300.0347151499818L679.6665104166667,275.668614303461L680.824375,282.54397022186447L681.9822395833334,336.31697155155524L684.29796875,270.1936404918883L685.4558333333333,266.189065064741L686.6136979166666,283.8735805046235L687.7715625,281.30619129090906L690.0872916666666,316.61669098812973L691.24515625,267.3220343375373L692.4030208333334,315.21872129975344L693.5608854166667,272.6506157606993L694.71875,312.52670539021653L695.8766145833333,290.01323405841214L697.0344791666668,306.2358511179551L698.19234375,279.79661100807186L699.3502083333333,275.3962327958236L701.6659375,302.1710539543344L702.8238020833334,311.81652799908125L703.9816666666667,310.4842457114484L705.1395312499999,305.9726336508372L707.4552604166666,320.1379359920326L708.613125,326.05711111061703L709.7709895833334,278.949938648695L710.9288541666667,285.12049792149475L713.2445833333333,283.16449797444517L714.4024479166667,280.17518015971575L715.5603125,296.42638329172837L716.7181770833333,309.79231626103876L719.03390625,265.68499433936245L720.1917708333333,294.3170188577125L721.3496354166666,300.41593962845997L722.5075,271.4228974037396L724.8232291666666,292.790642181557L725.9810937499999,296.39781666441644L727.1389583333333,265.8910982320132L728.2968229166667,297.09484100930007L730.6125520833334,305.65690830549653L731.7704166666666,315.49225884284095L732.9282812499999,269.75397387153663L734.0861458333333,296.47575957365353L736.401875,294.48048295830165L737.5597395833335,311.3219513952328L738.7176041666665,264.9716503440518L739.87546875,277.2407975578329L742.1911979166667,283.1615748468191L743.3490625000001,269.35169210490176L744.5069270833334,300.47596452225156L745.6647916666666,284.35988521254325L747.9805208333333,260.06527414068375L749.1383854166667,298.08768777689204L750.2962500000001,286.5883999040774L751.4541145833334,264.07345641669895L753.76984375,282.4946831757416L754.9277083333334,299.8513742034039L756.0855729166667,252.6642256709643L757.2434375,297.1989081819751L759.5591666666667,259.9720480983452L760.71703125,358.8836103620053L761.8748958333333,264.94947159499606L763.0327604166667,302.32889407844004L765.3484895833333,295.6808158002567L766.5063541666666,278.0872298157926L767.66421875,267.212999009906L768.8220833333334,284.40623478587196L771.1378125000001,275.83191861957187L772.2956770833333,284.01340207448874L773.4535416666666,312.361795132071L774.61140625,283.5993536025817L776.9271354166667,291.84988031300117L778.085,278.1697991161283L779.2428645833332,276.875736552365L780.4007291666667,292.36561246731907L782.7164583333333,270.2099456434584L783.8743229166668,296.4917915208577L785.0321875,282.58623848380057L786.1900520833333,273.5282899753491L788.50578125,271.22626070665234L789.6636458333334,301.0382298336262L790.8215104166667,284.1775665774555L791.9793749999999,286.04760949491725L794.2951041666666,281.6410867736429L795.45296875,316.8457922298749L796.6108333333334,284.68801706521225L797.7686979166667,246.40846281473236L800.0844270833333,291.55290036606624L801.2422916666667,283.248010973225L802.40015625,313.16305804386167L803.5580208333333,279.81734869770816L805.87375,283.13484026535696L807.0316145833333,299.5158268184249L808.1894791666666,290.05257017131214L809.34734375,287.19708693753336L810.5052083333334,344.248748752391L811.6630729166666,304.04420139228637L812.8209374999999,287.47142518283937L813.9788020833333,278.33163976583893L815.1366666666667,283.65095455946306L817.4523958333334,293.0747145977423L818.6102604166666,310.62084782994816L819.7681249999999,293.36184775639555L820.9259895833333,351.80983916312334L823.24171875,269.77311996221385L824.3995833333335,299.3941131651527L825.5574479166665,325.3873232885181L826.7153125,287.1750417254219L829.0310416666667,290.4936752771865L830.1889062500001,242.24312371965652L831.3467708333334,276.5673561572946L832.5046354166666,282.60049306449974L834.8203645833333,320.5283601303892L835.9782291666667,262.68780616735665L837.1360937500001,275.1352139803906L838.2939583333334,288.7010104979805L840.6096875,260.4513415398452L841.7675520833334,281.08886580151494L842.9254166666667,276.67711713404987L844.08328125,294.3341229237571L846.3990104166667,391.791943111285L847.556875,295.8197106887212L848.7147395833333,319.835297462079L849.8726041666667,300.26616746613485L852.1883333333333,342.7561334070999L853.3461979166666,338.19828951256324L854.5040625,273.64223510765345L855.6619270833334,289.2660967481485L857.9776562500001,285.53958072032L859.1355208333333,293.71566477307755L860.2933854166666,320.5096495302241L861.45125,277.7794376754173L863.7669791666667,287.6176848644709L864.92484375,255.17075464071158L866.0827083333332,340.71760424257656L867.2405729166667,276.85542592321997L869.5563020833333,266.92927273796283L870.7141666666668,270.3442231212344L871.87203125,295.89700108474096L873.0298958333333,273.4591865664319L875.345625,322.7635968867001L876.5034895833334,273.29665972095125L877.6613541666667,252.39785630004653L878.8192187499999,279.4196522589951L881.1349479166666,269.725513348579L882.2928125,276.34246689776216L883.4506770833334,265.0800844026074L884.6085416666667,289.72113454251735L886.9242708333333,289.1350598732544L888.0821354166667,291.50584741389446L889.24,270.74422659752366L890.3978645833333,309.6955638824677L892.71359375,324.749347171347L893.8714583333333,264.25138688699684L895.0293229166666,295.99757008461694L896.1871875,306.88304156649224L898.5029166666666,282.8708733298295L899.6607812499999,288.20302484833786L900.8186458333333,248.15120644622093L901.9765104166667,313.8630348843104L904.2922395833334,294.21382311953073L905.4501041666666,294.72048437329545L906.6079687499999,290.2037286425312L907.7658333333333,288.63949625676844L910.0815625,289.2967605048014L911.2394270833335,303.641520466813L912.3972916666665,283.6859394280755L913.55515625,278.0544042302574L915.8708854166667,294.5325888453961L917.0287500000001,284.5253893759448L918.1866145833334,297.5384789782866L919.3444791666666,273.1782473806898L921.6602083333333,266.8222552907986L922.8180729166667,284.0770769465344L923.9759375000001,294.9479466931166L925.1338020833334,283.34356597355094L926.2916666666666,272.65489947305525L927.44953125,277.0005195826619L928.6073958333334,286.46571075531926L929.7652604166667,324.46578814697625L930.923125,277.88019501474145L933.2388541666667,298.7306843262261L934.39671875,290.8948466110275L935.5545833333333,302.41482878020014L936.7124479166667,262.0916891152901L939.0281770833333,310.18291288711265L940.1860416666666,303.07103907621797L941.34390625,311.20977510616194L942.5017708333334,305.79806027230154L944.8175000000001,279.59583873459434L945.9753645833333,291.7880462100723L947.1332291666666,301.8790926041802L948.29109375,261.1640489126474L950.6068229166667,290.41328307783505L951.7646875,310.27437684905107L952.9225520833332,290.0113085338852L954.0804166666667,278.0020269015446L956.3961458333333,313.4585061263943L957.5540104166668,333.7271384274621L958.711875,275.3283213995884L959.8697395833333,243.00293970075072L962.18546875,283.4448782369329L963.3433333333334,308.574012943164L964.5011979166667,284.86610719310715L965.6590624999999,296.75333008792745L967.9747916666666,275.4769098565845L969.13265625,283.1210805461381L970.2905208333334,267.2625691234428L971.4483854166667,272.1945671658481L973.7641145833333,252.19422443157202L974.9219791666667,301.9704600916679L976.07984375,291.0078698380117L977.2377083333333,294.35549863088283L979.5534375,261.91332728994774L980.7113020833333,270.5841505500076L981.8691666666666,309.30493490501595L983.02703125,283.9336417196251L985.3427604166666,286.26716259740385L986.5006249999999,325.87146564861973L987.6584895833333,274.5276202362337L988.8163541666667,270.85686193667476L991.1320833333334,309.28042007711196L992.2899479166666,285.2753641034678L993.4478124999999,257.68168794862595L994.6056770833333,274.9200581957702L996.92140625,338.14836540014073L998.0792708333335,305.92111888696707L999.2371354166665,318.6676586485258L1000.395,295.32528476358976L1002.7107291666667,295.83931506202185L1003.8685937500001,290.11416030480177L1005.0264583333334,255.88888018526256L1006.1843229166666,289.4361810952747L1008.5000520833333,296.25495007400235L1009.6579166666667,286.81341583388286L1010.8157812500001,293.0506989202656L1011.9736458333334,299.8245988197904L1014.289375,296.376441821375L1015.4472395833334,289.0411605765524L1016.6051041666667,320.15034526322063L1017.76296875,278.1874680012066L1020.0786979166667,280.52379205200856L1021.2365625,295.66061689869366L1022.3944270833333,285.2618422885289L1023.5522916666667,327.9963007154129L1025.8680208333333,296.4834235526526L1027.0258854166666,311.7816815520597L1028.18375,262.4971002583151L1029.3416145833332,332.78230632513066L1031.65734375,302.2869923859841L1032.8152083333332,283.14843367430007L1033.9730729166665,301.2054468837402L1035.1309375,287.10526019697716L1037.4466666666667,297.55747596918246L1038.60453125,268.499687547325L1039.7623958333334,271.6150247453642L1040.9202604166667,292.719172403034L1042.078125,251.86134948894892L1043.2359895833333,278.5492420698662L1044.3938541666666,284.541907383675L1045.55171875,306.51198386183137L1046.7095833333333,303.7875016470272L1049.0253125,274.3519844131898L1050.1831770833335,271.8486753092919L1051.3410416666668,270.2249218960717L1052.49890625,273.37757183200733L1054.8146354166668,290.8579118852693L1055.9725,256.1281731783677L1057.1303645833334,311.72003671303617L1058.2882291666667,292.9893121179293L1060.6039583333334,278.40938279910506L1061.7618229166667,285.23177763650114L1062.9196875,285.06867379101936L1064.0775520833333,280.3724932160847L1066.39328125,272.40321405404285L1067.5511458333333,350.64811856853726L1068.7090104166666,288.93149947568793L1069.866875,296.99793907720533L1072.1826041666666,292.81249074586515L1073.34046875,260.95752268136016L1074.4983333333332,308.6122656918397L1075.6561979166668,307.78368850531297L1077.9719270833334,280.2997545874361L1079.1297916666665,300.61471815410283L1080.28765625,328.0843396462238L1081.4455208333334,291.7467179359035L1083.76125,322.49045747854615L1084.9191145833333,258.289980846803L1086.0769791666667,273.58068605993213L1087.23484375,268.37166243074313L1089.5505729166666,293.918617954805L1090.7084375,305.29258299622575L1091.8663020833335,303.29026669932L1093.0241666666666,288.46424566084585L1095.3398958333332,275.55437373319967L1096.4977604166668,300.68282231532913L1097.655625,325.48308861652725L1098.8134895833334,304.8142872548001L1101.12921875,291.79141224518145L1102.2870833333334,279.9831908211521L1103.4449479166667,301.0072502403244L1104.6028125,272.9484903855574L1106.9185416666667,291.0389811416809L1108.07640625,300.62788193575915L1109.2342708333333,267.75854441055907L1110.3921354166666,275.20553095943063L1112.7078645833333,335.47057733379876L1113.8657291666666,261.1747199822553L1115.02359375,279.1500558611195L1116.1814583333332,271.38849107052516L1118.4971875,287.91659701292554L1119.6550520833332,299.91203150797986L1120.8129166666665,334.5060237310971L1121.97078125,296.95798855556643L1124.2865104166667,273.15837753599817L1125.444375,288.1116116352739L1126.6022395833334,266.9330376115662L1127.7601041666667,299.51663178789977L1130.0758333333333,284.7405972761451L1131.2336979166666,286.0535019153588L1132.3915625,323.26642594374016L1133.5494270833333,276.42583386839414L1135.86515625,297.8692080562136L1137.0230208333335,289.6149302413631L1138.1808854166668,297.53458670321874L1139.33875,302.8451333482453L1141.6544791666668,278.16895851719033L1142.81234375,248.74951890234254L1143.9702083333334,269.5301827746518L1145.1280729166667,258.33540647965236L1147.4438020833334,270.18431995392785L1148.6016666666667,260.39102561190396L1149.75953125,258.3232029782988L1150.9173958333333,298.6932752398155L1153.233125,306.04227814157684L1154.3909895833333,272.7069933574824L1155.5488541666666,271.11309078093956L1156.70671875,338.6813292043605L1157.8645833333335,305.5543686899846L1159.0224479166666,284.7290200280746L1160.1803125,260.7898517479951L1161.3381770833332,272.9907784018823L1162.4960416666668,278.2892180359981L1164.8117708333334,320.6799159025244L1165.9696354166665,293.45817611610846L1167.1275,288.85006805695355L1168.2853645833334,307.2835501734486L1170.60109375,292.60701670949277L1171.7589583333333,303.4678260757363L1172.9168229166667,307.9566853111177L1174.0746875,262.46504147441476L1176.3904166666666,358.24657513651493L1177.54828125,287.8224030829804L1178.7061458333335,285.19033518871913L1179.8640104166666,269.61507667430413L1182.1797395833332,265.8304230063235L1183.3376041666668,278.04428482226047L1184.49546875,323.2648227224832L1185.6533333333334,304.5656618509315L1187.9690625,280.69956929308074L1189.1269270833334,293.67184798341106L1190.2847916666667,269.57852636181343L1191.44265625,327.67270533895146L1193.7583854166667,275.57822453317016L1194.91625,288.48246913539475L1196.0741145833333,301.1416230297265L1197.2319791666666,330.70614140628464L1199.5477083333333,284.5441963962329L1200.7055729166666,274.9255645938666L1201.8634375,283.6066438117722L1203.0213020833332,350.83697601176635L1205.33703125,262.92110688115304L1206.4948958333332,323.5137648975115L1207.6527604166665,274.74699627214846L1208.810625,267.03195744103385L1211.1263541666667,266.6689764677387L1212.28421875,292.1493699717067L1213.4420833333334,322.3711870130554L1214.5999479166667,311.7307235061989L1216.9156770833333,266.2765804511861L1218.0735416666666,280.6551087106009L1219.23140625,296.2229449084085L1220.3892708333333,275.9387200823511L1222.705,264.6345683951909L1223.8628645833335,275.2747892420323L1225.0207291666668,284.92325292768936L1226.17859375,284.64346488227335L1228.4943229166668,279.84984480894093L1229.6521875,287.2920407065647L1230.8100520833334,311.0850718795016L1231.9679166666667,322.74982455278274L1234.2836458333334,283.6401891438672L1235.4415104166667,314.84438419401573L1236.599375,290.5133777836472L1237.7572395833333,312.00375719310483L1240.07296875,313.1078892444323L1241.2308333333333,285.17807711246985L1242.3886979166666,314.17535913421796L1243.5465625,278.91904443669574L1245.8622916666666,314.332638113976L1247.02015625,258.61097902406857L1248.1780208333332,293.557677007683L1249.3358854166668,290.0156803220965L1251.6516145833334,280.24544568585054L1252.8094791666665,284.9579663862636L1253.96734375,268.6968643291395L1255.1252083333334,300.8452882768616L1257.4409375,299.53036789639026L1258.5988020833333,306.8855181190427L1259.7566666666667,280.90040711577296L1260.91453125,300.38189555938953L1263.2302604166666,319.83954693227054L1264.388125,326.08572468721877L1265.5459895833335,314.55447257551924L1266.7038541666666,267.7439354152809L1269.0195833333332,294.2709241135002L1270.1774479166668,268.33609176325257L1271.3353125,301.59208693690533L1272.4931770833334,298.75678452363195" style="fill: none;" fill="none"></path></g></g></g></g></g></g><g transform="translate(51, 378)" clip-path="url(#clip_1)"><clipPath id="clip_1"><rect width="1389" height="22"></rect></clipPath><g><g><line x1="0" y1="0" x2="0" y2="5" style="visibility: inherit;" fill="rgb(0, 0, 0)" stroke="rgb(204, 204, 204)" stroke-width="1px"></line><line x1="115.78645833333333" y1="0" x2="115.78645833333333" y2="5" style="visibility: inherit;" fill="rgb(0, 0, 0)" stroke="rgb(204, 204, 204)" stroke-width="1px"></line><line x1="231.57291666666666" y1="0" x2="231.57291666666666" y2="5" style="visibility: inherit;" fill="rgb(0, 0, 0)" stroke="rgb(204, 204, 204)" stroke-width="1px"></line><line x1="347.359375" y1="0" x2="347.359375" y2="5" style="visibility: inherit;" fill="rgb(0, 0, 0)" stroke="rgb(204, 204, 204)" stroke-width="1px"></line><line x1="463.1458333333333" y1="0" x2="463.1458333333333" y2="5" style="visibility: inherit;" fill="rgb(0, 0, 0)" stroke="rgb(204, 204, 204)" stroke-width="1px"></line><line x1="578.9322916666667" y1="0" x2="578.9322916666667" y2="5" style="visibility: inherit;" fill="rgb(0, 0, 0)" stroke="rgb(204, 204, 204)" stroke-width="1px"></line><line x1="694.71875" y1="0" x2="694.71875" y2="5" style="visibility: inherit;" fill="rgb(0, 0, 0)" stroke="rgb(204, 204, 204)" stroke-width="1px"></line><line x1="810.5052083333334" y1="0" x2="810.5052083333334" y2="5" style="visibility: inherit;" fill="rgb(0, 0, 0)" stroke="rgb(204, 204, 204)" stroke-width="1px"></line><line x1="926.2916666666666" y1="0" x2="926.2916666666666" y2="5" style="visibility: inherit;" fill="rgb(0, 0, 0)" stroke="rgb(204, 204, 204)" stroke-width="1px"></line><line x1="1042.078125" y1="0" x2="1042.078125" y2="5" style="visibility: inherit;" fill="rgb(0, 0, 0)" stroke="rgb(204, 204, 204)" stroke-width="1px"></line><line x1="1157.8645833333335" y1="0" x2="1157.8645833333335" y2="5" style="visibility: inherit;" fill="rgb(0, 0, 0)" stroke="rgb(204, 204, 204)" stroke-width="1px"></line><line x1="1273.6510416666665" y1="0" x2="1273.6510416666665" y2="5" style="visibility: inherit;" fill="rgb(0, 0, 0)" stroke="rgb(204, 204, 204)" stroke-width="1px"></line><line x1="1389.4375" y1="0" x2="1389.4375" y2="5" style="visibility: inherit;" fill="rgb(0, 0, 0)" stroke="rgb(204, 204, 204)" stroke-width="1px"></line></g><g transform="translate(0, 8)"><text x="0" y="0" dx="0em" dy="0.95em" style="text-anchor: middle; visibility: hidden; font-family: Roboto, sans-serif; font-size: 12px; font-weight: 200;" fill="rgb(50, 49, 63)" stroke="none" stroke-width="1px">-100</text><text x="115.78645833333333" y="0" dx="0em" dy="0.95em" style="text-anchor: middle; visibility: inherit; font-family: Roboto, sans-serif; font-size: 12px; font-weight: 200;" fill="rgb(50, 49, 63)" stroke="none" stroke-width="1px">0</text><text x="231.57291666666666" y="0" dx="0em" dy="0.95em" style="text-anchor: middle; visibility: inherit; font-family: Roboto, sans-serif; font-size: 12px; font-weight: 200;" fill="rgb(50, 49, 63)" stroke="none" stroke-width="1px">100</text><text x="347.359375" y="0" dx="0em" dy="0.95em" style="text-anchor: middle; visibility: inherit; font-family: Roboto, sans-serif; font-size: 12px; font-weight: 200;" fill="rgb(50, 49, 63)" stroke="none" stroke-width="1px">200</text><text x="463.1458333333333" y="0" dx="0em" dy="0.95em" style="text-anchor: middle; visibility: inherit; font-family: Roboto, sans-serif; font-size: 12px; font-weight: 200;" fill="rgb(50, 49, 63)" stroke="none" stroke-width="1px">300</text><text x="578.9322916666667" y="0" dx="0em" dy="0.95em" style="text-anchor: middle; visibility: inherit; font-family: Roboto, sans-serif; font-size: 12px; font-weight: 200;" fill="rgb(50, 49, 63)" stroke="none" stroke-width="1px">400</text><text x="694.71875" y="0" dx="0em" dy="0.95em" style="text-anchor: middle; visibility: inherit; font-family: Roboto, sans-serif; font-size: 12px; font-weight: 200;" fill="rgb(50, 49, 63)" stroke="none" stroke-width="1px">500</text><text x="810.5052083333334" y="0" dx="0em" dy="0.95em" style="text-anchor: middle; visibility: inherit; font-family: Roboto, sans-serif; font-size: 12px; font-weight: 200;" fill="rgb(50, 49, 63)" stroke="none" stroke-width="1px">600</text><text x="926.2916666666666" y="0" dx="0em" dy="0.95em" style="text-anchor: middle; visibility: inherit; font-family: Roboto, sans-serif; font-size: 12px; font-weight: 200;" fill="rgb(50, 49, 63)" stroke="none" stroke-width="1px">700</text><text x="1042.078125" y="0" dx="0em" dy="0.95em" style="text-anchor: middle; visibility: inherit; font-family: Roboto, sans-serif; font-size: 12px; font-weight: 200;" fill="rgb(50, 49, 63)" stroke="none" stroke-width="1px">800</text><text x="1157.8645833333335" y="0" dx="0em" dy="0.95em" style="text-anchor: middle; visibility: inherit; font-family: Roboto, sans-serif; font-size: 12px; font-weight: 200;" fill="rgb(50, 49, 63)" stroke="none" stroke-width="1px">900</text><text x="1273.6510416666665" y="0" dx="0em" dy="0.95em" style="text-anchor: middle; visibility: inherit; font-family: Roboto, sans-serif; font-size: 12px; font-weight: 200;" fill="rgb(50, 49, 63)" stroke="none" stroke-width="1px">1k</text><text x="1389.4375" y="0" dx="0em" dy="0.95em" style="text-anchor: middle; visibility: hidden; font-family: Roboto, sans-serif; font-size: 12px; font-weight: 200;" fill="rgb(50, 49, 63)" stroke="none" stroke-width="1px">1.1k</text></g><line x1="0" y1="0" x2="1389.4375" y2="0" fill="rgb(0, 0, 0)" stroke="rgb(204, 204, 204)" stroke-width="1px"></line></g></g></g></g></svg>